<svg width="360" height="380" viewBox="0 0 360 380" fill="none" xmlns="http://www.w3.org/2000/svg">
<mask id="mask0" mask-type="alpha" maskUnits="userSpaceOnUse" x="0" y="0" width="360" height="380">
<rect width="360" height="380" fill="#003458"/>
</mask>
<g mask="url(#mask0)">
<path d="M28.2256 77C55.4343 77 74.4512 55.4979 74.4512 24.9269C74.4512 -5.49789 55.4343 -27 28.2256 -27C1.16314 -27 -18 -5.49789 -18 24.9269C-18 55.4979 1.16314 77 28.2256 77ZM28.2256 54.3277C16.2303 54.3277 7.7459 42.0408 7.7459 24.9269C7.7459 7.81294 16.2303 -4.32771 28.2256 -4.32771C40.3671 -4.32771 48.8516 7.81294 48.8516 24.9269C48.8516 42.0408 40.3671 54.3277 28.2256 54.3277Z" fill=" #F2F9FB"/>
<path d="M110.132 75.2447H135V-25.2447H115.105L83.2156 -3.88888L93.1629 13.5176L110.132 2.98594V75.2447Z" fill="#F2F9FB"/>
</g>
</svg>
