<svg width="185" height="104" viewBox="0 0 185 104" fill="none" xmlns="http://www.w3.org/2000/svg">
<path d="M46.3154 104C73.577 104 92.6308 82.4979 92.6308 51.9269C92.6308 21.5021 73.577 0 46.3154 0C19.2004 0 0 21.5021 0 51.9269C0 82.4979 19.2004 104 46.3154 104ZM46.3154 81.3277C34.2968 81.3277 25.7959 69.0408 25.7959 51.9269C25.7959 34.8129 34.2968 22.6723 46.3154 22.6723C58.4805 22.6723 66.9814 34.8129 66.9814 51.9269C66.9814 69.0408 58.4805 81.3277 46.3154 81.3277Z" fill="#F2F9FB"/>
<path d="M106.102 102.245H184.516V79.865H144.503L160.332 68.602C177.921 56.6076 183.49 46.2222 183.49 32.9114C183.49 13.7497 167.661 0 145.089 0C128.527 0 115.483 6.87483 104.783 19.7468L120.466 35.2518C128.088 27.2068 135.123 22.6723 144.503 22.6723C151.832 22.6723 157.841 27.0605 157.841 33.9353C157.841 40.0788 154.616 45.6371 143.331 54.121L106.102 81.9128V102.245Z" fill="#F2F9FB"/>
</svg>
