<svg width="185" height="105" viewBox="0 0 185 105" fill="none" xmlns="http://www.w3.org/2000/svg">
<path d="M46.9925 104.526C74.1347 104.526 93.105 83.054 93.105 52.5259C93.105 22.1439 74.1347 0.671997 46.9925 0.671997C19.9962 0.671997 0.879883 22.1439 0.879883 52.5259C0.879883 83.054 19.9962 104.526 46.9925 104.526ZM46.9925 81.8855C35.0265 81.8855 26.5628 69.6158 26.5628 52.5259C26.5628 35.436 35.0265 23.3124 46.9925 23.3124C59.1043 23.3124 67.568 35.436 67.568 52.5259C67.568 69.6158 59.1043 81.8855 46.9925 81.8855Z" fill="#F2F9FB"/>
<path d="M145.042 104.672C169.266 104.672 184.88 92.1102 184.88 74.436C184.88 61.5821 175.249 53.6945 164.158 51.0653C175.395 47.8518 182.691 39.3799 182.691 28.1327C182.691 12.3574 168.536 0.671997 144.896 0.671997C126.364 0.671997 114.106 8.41357 105.496 18.4922L119.505 33.6832C126.072 27.2563 133.368 23.0203 142.27 23.0203C151.317 23.0203 157.3 26.672 157.3 32.8068C157.3 38.6495 151.901 42.0091 141.832 41.863H130.012V62.8967L141.832 62.7507C154.527 62.7507 159.343 65.9641 159.343 72.245C159.343 78.0877 153.798 82.3237 143.729 82.3237C134.39 82.3237 125.05 78.672 117.754 71.3686L103.453 87.8742C112.355 97.8068 126.51 104.672 145.042 104.672Z" fill="#F2F9FB"/>
</svg>
