<svg width="12" height="18" viewBox="0 0 12 18" fill="none" xmlns="http://www.w3.org/2000/svg">
<path d="M10.7199 8.05334L3.17327 0.520008C3.04932 0.395037 2.90185 0.295845 2.73937 0.228153C2.57689 0.160462 2.40262 0.12561 2.2266 0.12561C2.05059 0.12561 1.87631 0.160462 1.71383 0.228153C1.55135 0.295845 1.40389 0.395037 1.27994 0.520008C1.0316 0.769825 0.892212 1.10776 0.892212 1.46001C0.892212 1.81226 1.0316 2.15019 1.27994 2.40001L7.87994 9.06667L1.27994 15.6667C1.0316 15.9165 0.892212 16.2544 0.892212 16.6067C0.892212 16.9589 1.0316 17.2969 1.27994 17.5467C1.40342 17.6727 1.55068 17.7729 1.71318 17.8415C1.87568 17.9102 2.05019 17.9459 2.2266 17.9467C2.40301 17.9459 2.57752 17.9102 2.74002 17.8415C2.90252 17.7729 3.04978 17.6727 3.17327 17.5467L10.7199 10.0133C10.8553 9.88848 10.9633 9.73695 11.0372 9.56828C11.111 9.39962 11.1492 9.21748 11.1492 9.03334C11.1492 8.84921 11.111 8.66707 11.0372 8.4984C10.9633 8.32973 10.8553 8.1782 10.7199 8.05334Z" fill="white"/>
</svg>
