<svg width="32" height="40" viewBox="0 0 32 40" fill="none" xmlns="http://www.w3.org/2000/svg">
<path d="M31.4081 9.86939L21.449 0.42449C21.1061 0.171429 20.7714 0 20.3388 0H1.70202C0.763244 0 0.0856934 0.767347 0.0856934 1.61633V38.3837C0.0856934 39.3224 0.85304 40 1.70202 40H30.2979C31.2367 40 31.9143 39.3224 31.9143 38.3837V10.9796C31.9143 10.5551 31.751 10.2122 31.4081 9.86939ZM21.8735 5.17551L26.9837 10.0408H21.8735V5.17551ZM28.7714 36.849H3.23671V3.15102H18.6408V11.4939C18.6408 12.4327 19.4081 13.1102 20.2571 13.1102H28.7714V36.849Z" fill="#E0E0E0"/>
<path d="M20.8774 15.1102C20.1754 14.7428 19.3182 15.0204 18.9509 15.7143L10.5264 31.8857C10.1591 32.5877 10.4121 33.4857 11.1305 33.8122C11.9468 34.1877 12.804 33.6979 13.057 33.2081L21.4815 17.0367C21.8489 16.3347 21.5713 15.4694 20.8774 15.1102Z" fill="#E0E0E0"/>
<path d="M14.8612 19.6979C14.8612 16.955 12.9673 14.7346 10.6244 14.7346C8.28157 14.7346 6.3877 16.955 6.3877 19.6979C6.3877 22.4407 8.28974 24.653 10.6244 24.653C12.9591 24.653 14.8612 22.4326 14.8612 19.6979ZM9.24484 19.6979C9.24484 18.5387 9.86525 17.5918 10.6244 17.5918C11.3836 17.5918 12.004 18.5305 12.004 19.6979C12.004 20.8652 11.3918 21.7958 10.6244 21.7958C9.85708 21.7958 9.24484 20.8571 9.24484 19.6979Z" fill="#E0E0E0"/>
<path d="M21.3755 24.2611C19.0327 24.2611 17.1388 26.4815 17.1388 29.2244C17.1388 31.9672 19.0327 34.1876 21.3755 34.1876C23.7184 34.1876 25.6123 31.9672 25.6123 29.2244C25.6123 26.4815 23.7184 24.2611 21.3755 24.2611ZM21.3755 31.3223C20.6163 31.3223 19.9959 30.3836 19.9959 29.2162C19.9959 28.0489 20.6163 27.1101 21.3755 27.1101C22.1347 27.1101 22.7551 28.0489 22.7551 29.2162C22.7551 30.3836 22.1429 31.3223 21.3755 31.3223Z" fill="#E0E0E0"/>
</svg>
