<svg width="34" height="34" viewBox="0 0 34 34" fill="none" xmlns="http://www.w3.org/2000/svg">
<path d="M25.9 6.10016C25.5044 6.10016 25.1178 6.21746 24.7889 6.43722C24.46 6.65699 24.2036 6.96934 24.0523 7.3348C23.9009 7.70025 23.8613 8.10238 23.9384 8.49034C24.0156 8.87831 24.2061 9.23467 24.4858 9.51438C24.7655 9.79408 25.1219 9.98456 25.5098 10.0617C25.8978 10.1389 26.2999 10.0993 26.6654 9.94792C27.0308 9.79655 27.3432 9.5402 27.563 9.2113C27.7827 8.88241 27.9 8.49573 27.9 8.10016C27.9 7.56973 27.6893 7.06102 27.3142 6.68595C26.9392 6.31088 26.4304 6.10016 25.9 6.10016ZM33.5667 10.1335C33.5343 8.75066 33.2753 7.3825 32.8 6.0835C32.3762 4.97205 31.7167 3.96563 30.8667 3.1335C30.0414 2.27921 29.0326 1.62379 27.9167 1.21683C26.6211 0.727097 25.2514 0.462179 23.8667 0.433496C22.1 0.333496 21.5333 0.333496 17 0.333496C12.4667 0.333496 11.9 0.333496 10.1333 0.433496C8.7486 0.462179 7.37892 0.727097 6.08334 1.21683C4.96947 1.62791 3.96157 2.28276 3.13334 3.1335C2.27905 3.95879 1.62364 4.96756 1.21668 6.0835C0.726945 7.37907 0.462027 8.74875 0.433343 10.1335C0.333343 11.9002 0.333344 12.4668 0.333344 17.0002C0.333344 21.5335 0.333343 22.1002 0.433343 23.8668C0.462027 25.2516 0.726945 26.6213 1.21668 27.9168C1.62364 29.0328 2.27905 30.0415 3.13334 30.8668C3.96157 31.7176 4.96947 32.3724 6.08334 32.7835C7.37892 33.2732 8.7486 33.5381 10.1333 33.5668C11.9 33.6668 12.4667 33.6668 17 33.6668C21.5333 33.6668 22.1 33.6668 23.8667 33.5668C25.2514 33.5381 26.6211 33.2732 27.9167 32.7835C29.0326 32.3765 30.0414 31.7211 30.8667 30.8668C31.7204 30.0378 32.3806 29.0305 32.8 27.9168C33.2753 26.6178 33.5343 25.2497 33.5667 23.8668C33.5667 22.1002 33.6667 21.5335 33.6667 17.0002C33.6667 12.4668 33.6667 11.9002 33.5667 10.1335ZM30.5667 23.6668C30.5545 24.7248 30.3629 25.773 30 26.7668C29.7339 27.4922 29.3065 28.1475 28.75 28.6835C28.2094 29.2343 27.5554 29.6609 26.8333 29.9335C25.8395 30.2964 24.7913 30.488 23.7333 30.5002C22.0667 30.5835 21.45 30.6002 17.0667 30.6002C12.6833 30.6002 12.0667 30.6002 10.4 30.5002C9.3015 30.5207 8.20767 30.3516 7.16668 30.0002C6.47631 29.7136 5.85227 29.2881 5.33334 28.7502C4.78016 28.2147 4.35808 27.5588 4.10001 26.8335C3.6931 25.8254 3.46742 24.7534 3.43334 23.6668C3.43334 22.0002 3.33334 21.3835 3.33334 17.0002C3.33334 12.6168 3.33334 12.0002 3.43334 10.3335C3.44081 9.25192 3.63826 8.18007 4.01668 7.16683C4.31009 6.46335 4.76045 5.83626 5.33334 5.3335C5.8397 4.76044 6.46549 4.30532 7.16668 4.00016C8.1826 3.63357 9.25334 3.44196 10.3333 3.4335C12 3.4335 12.6167 3.3335 17 3.3335C21.3833 3.3335 22 3.3335 23.6667 3.4335C24.7246 3.44563 25.7729 3.63724 26.7667 4.00016C27.5241 4.28125 28.2038 4.73824 28.75 5.3335C29.2962 5.84546 29.7229 6.47138 30 7.16683C30.3704 8.18172 30.5622 9.25313 30.5667 10.3335C30.65 12.0002 30.6667 12.6168 30.6667 17.0002C30.6667 21.3835 30.65 22.0002 30.5667 23.6668ZM17 8.45016C15.3097 8.45346 13.6583 8.95771 12.2544 9.89919C10.8506 10.8407 9.75731 12.1772 9.11273 13.7398C8.46816 15.3023 8.30122 17.0209 8.633 18.6784C8.96478 20.3358 9.7804 21.8577 10.9768 23.0518C12.1732 24.2459 13.6967 25.0585 15.3548 25.3871C17.0129 25.7156 18.7311 25.5453 20.2925 24.8977C21.8538 24.2501 23.1881 23.1542 24.1269 21.7486C25.0656 20.3429 25.5667 18.6905 25.5667 17.0002C25.5689 15.8753 25.3487 14.7612 24.9187 13.7218C24.4888 12.6823 23.8576 11.7382 23.0615 10.9436C22.2653 10.149 21.3199 9.51963 20.2797 9.09171C19.2394 8.6638 18.1248 8.44577 17 8.45016ZM17 22.5502C15.9023 22.5502 14.8293 22.2247 13.9166 21.6148C13.0039 21.005 12.2925 20.1382 11.8725 19.1241C11.4524 18.1099 11.3425 16.994 11.5567 15.9174C11.7708 14.8408 12.2994 13.8519 13.0756 13.0757C13.8517 12.2995 14.8407 11.771 15.9173 11.5568C16.9939 11.3427 18.1098 11.4526 19.1239 11.8726C20.138 12.2927 21.0048 13.0041 21.6147 13.9167C22.2245 14.8294 22.55 15.9025 22.55 17.0002C22.55 17.729 22.4065 18.4507 22.1275 19.1241C21.8486 19.7974 21.4398 20.4092 20.9245 20.9246C20.4091 21.44 19.7973 21.8488 19.1239 22.1277C18.4505 22.4066 17.7288 22.5502 17 22.5502Z" fill="white"/>
</svg>
