<svg width="18" height="22" viewBox="0 0 18 22" fill="none" xmlns="http://www.w3.org/2000/svg">
<path d="M15 3.47997C13.4087 1.88867 11.2504 0.99469 9.00001 0.99469C6.74957 0.99469 4.5913 1.88867 3.00001 3.47997C1.40871 5.07127 0.514725 7.22954 0.514725 9.47997C0.514725 11.7304 1.40871 13.8887 3.00001 15.48L8.27001 20.76C8.36297 20.8537 8.47357 20.9281 8.59543 20.9789C8.71729 21.0296 8.84799 21.0558 8.98001 21.0558C9.11202 21.0558 9.24272 21.0296 9.36458 20.9789C9.48644 20.9281 9.59704 20.8537 9.69001 20.76L15 15.43C16.5847 13.8453 17.4749 11.696 17.4749 9.45497C17.4749 7.21392 16.5847 5.06465 15 3.47997ZM13.57 14L9.00001 18.59L4.43001 14C3.52715 13.0963 2.91248 11.9452 2.6637 10.6923C2.41492 9.43931 2.54319 8.14072 3.03231 6.96065C3.52143 5.78059 4.34942 4.77202 5.41164 4.06245C6.47385 3.35288 7.72259 2.97415 9.00001 2.97415C10.2774 2.97415 11.5262 3.35288 12.5884 4.06245C13.6506 4.77202 14.4786 5.78059 14.9677 6.96065C15.4568 8.14072 15.5851 9.43931 15.3363 10.6923C15.0875 11.9452 14.4729 13.0963 13.57 14ZM6.00001 6.40997C5.19272 7.21974 4.7394 8.31654 4.7394 9.45997C4.7394 10.6034 5.19272 11.7002 6.00001 12.51C6.59977 13.1108 7.36359 13.5211 8.19566 13.6894C9.02772 13.8577 9.89096 13.7766 10.6771 13.4561C11.4632 13.1357 12.1372 12.5903 12.6145 11.8882C13.0918 11.1862 13.3511 10.3588 13.36 9.50997C13.3645 8.94318 13.2553 8.38123 13.0389 7.85736C12.8225 7.33349 12.5032 6.85833 12.1 6.45997C11.7037 6.05455 11.2311 5.73151 10.7094 5.50944C10.1878 5.28736 9.62735 5.17065 9.06041 5.166C8.49347 5.16135 7.9312 5.26887 7.40598 5.48236C6.88075 5.69585 6.40293 6.0111 6.00001 6.40997ZM10.69 11.09C10.311 11.4747 9.81022 11.7159 9.27313 11.7722C8.73605 11.8286 8.19607 11.6966 7.74551 11.3989C7.29496 11.1012 6.9618 10.6562 6.80301 10.1401C6.64422 9.6239 6.66966 9.06861 6.87496 8.56913C7.08027 8.06964 7.45271 7.65699 7.92859 7.40171C8.40448 7.14643 8.95426 7.06438 9.48394 7.16959C10.0136 7.2748 10.4903 7.56073 10.8325 7.9785C11.1747 8.39627 11.3612 8.91994 11.36 9.45997C11.3455 10.0772 11.0865 10.6635 10.64 11.09H10.69Z" fill="#BDBDBD"/>
</svg>
