<svg width="61" height="43" viewBox="0 0 61 43" fill="none" xmlns="http://www.w3.org/2000/svg">
<path d="M14.375 0C5 8.47536 0 17.4493 0 25.6754C0 35.771 5.5 43 13.375 43C20.25 43 26 37.142 26 30.0377C26 23.1826 20.375 17.3246 13.625 17.3246C14.75 13.2116 17.625 8.97391 21.625 5.48405L14.375 0ZM49.375 0C40 8.47536 35 17.4493 35 25.6754C35 35.771 40.5 43 48.375 43C55.25 43 61 37.142 61 30.0377C61 23.1826 55.375 17.3246 48.625 17.3246C49.75 13.2116 52.625 8.97391 56.625 5.48405L49.375 0Z" fill="#82CDE5"/>
</svg>
