<svg width="34" height="34" viewBox="0 0 34 34" fill="none" xmlns="http://www.w3.org/2000/svg">
<path d="M32.1167 25.05L28.6667 21.5167C27.9246 20.8112 26.9885 20.3439 25.9787 20.1746C24.9689 20.0053 23.9316 20.1418 23 20.5667L21.5 19.0667C23.2676 16.7049 24.0748 13.7611 23.7592 10.8281C23.4436 7.89498 22.0286 5.19037 19.7991 3.25866C17.5695 1.32695 14.6909 0.311589 11.7428 0.416968C8.79466 0.522347 5.99592 1.74064 3.90995 3.82661C1.82399 5.91257 0.605691 8.71132 0.500312 11.6594C0.394932 14.6076 1.4103 17.4861 3.342 19.7157C5.27371 21.9453 7.97833 23.3603 10.9114 23.6759C13.8445 23.9915 16.7882 23.1842 19.15 21.4167L20.6333 22.9C20.1585 23.8327 19.9883 24.8909 20.1468 25.9255C20.3053 26.9601 20.7844 27.9188 21.5167 28.6667L25.05 32.2C25.9875 33.1363 27.2583 33.6623 28.5833 33.6623C29.9083 33.6623 31.1792 33.1363 32.1167 32.2C32.5929 31.7343 32.9713 31.1782 33.2296 30.5643C33.488 29.9504 33.621 29.291 33.621 28.625C33.621 27.9589 33.488 27.2996 33.2296 26.6857C32.9713 26.0718 32.5929 25.5156 32.1167 25.05ZM17.9833 17.9833C16.8171 19.1467 15.3322 19.9382 13.7162 20.2581C12.1003 20.5779 10.4258 20.4117 8.90434 19.7803C7.38285 19.149 6.0826 18.0808 5.16786 16.7109C4.25311 15.3409 3.7649 13.7306 3.7649 12.0833C3.7649 10.436 4.25311 8.82572 5.16786 7.45576C6.0826 6.08581 7.38285 5.0177 8.90434 4.38635C10.4258 3.755 12.1003 3.58874 13.7162 3.90858C15.3322 4.22842 16.8171 5.02 17.9833 6.18333C18.7594 6.95742 19.3751 7.87701 19.7952 8.88943C20.2153 9.90185 20.4316 10.9872 20.4316 12.0833C20.4316 13.1794 20.2153 14.2648 19.7952 15.2772C19.3751 16.2896 18.7594 17.2092 17.9833 17.9833ZM29.7667 29.7667C29.6117 29.9229 29.4274 30.0469 29.2243 30.1315C29.0212 30.2161 28.8034 30.2597 28.5833 30.2597C28.3633 30.2597 28.1455 30.2161 27.9424 30.1315C27.7393 30.0469 27.5549 29.9229 27.4 29.7667L23.8667 26.2333C23.7105 26.0784 23.5865 25.8941 23.5019 25.691C23.4172 25.4879 23.3737 25.27 23.3737 25.05C23.3737 24.83 23.4172 24.6121 23.5019 24.409C23.5865 24.2059 23.7105 24.0216 23.8667 23.8667C24.0216 23.7104 24.2059 23.5865 24.409 23.5018C24.6121 23.4172 24.83 23.3737 25.05 23.3737C25.27 23.3737 25.4879 23.4172 25.691 23.5018C25.8941 23.5865 26.0784 23.7104 26.2333 23.8667L29.7667 27.4C29.9229 27.5549 30.0469 27.7393 30.1315 27.9424C30.2161 28.1455 30.2597 28.3633 30.2597 28.5833C30.2597 28.8033 30.2161 29.0212 30.1315 29.2243C30.0469 29.4274 29.9229 29.6117 29.7667 29.7667Z" fill="white"/>
</svg>
