<svg width="40" height="40" viewBox="0 0 40 40" fill="none" xmlns="http://www.w3.org/2000/svg">
<path d="M39.8727 19.4793C39.7029 19.1396 39.3631 18.8 38.9386 18.6301L27.3895 14.0444C28.3235 12.0913 28.7482 9.9683 28.6633 8.01517C28.5783 5.55252 27.5593 3.51445 25.9458 2.07076C21.8697 -1.49587 14.9062 -0.222078 10.3206 5.04292C8.62221 6.99605 7.34841 9.28888 6.83889 11.6667C6.83889 11.7516 6.83889 11.9214 6.83889 12.0064L0.979429 14.8087C0.130204 15.2333 -0.209422 16.0825 0.130204 16.9317L5.05558 29.1602C5.22539 29.5848 5.5651 29.9245 5.98967 30.0943L30.5315 39.8601C30.7013 39.945 30.9561 39.945 31.126 39.945C31.7204 39.945 32.3998 39.5205 32.6545 38.7562L39.8727 20.7532C40.0426 20.3286 40.0426 19.904 39.8727 19.4793ZM12.7833 7.16602C16.0952 3.34463 21.1054 2.15578 23.738 4.44862C24.9268 5.5526 25.2665 7.08116 25.3515 8.10019C25.4364 9.62875 25.0967 11.2423 24.3324 12.8557L14.4817 8.94926C14.0571 8.77945 13.5476 8.86431 13.1229 9.0342L10.8301 10.1382C11.3396 9.03421 12.019 8.10011 12.7833 7.16602ZM30.1918 36.1236L7.85793 27.292L3.86673 17.1865L13.8873 12.3461L22.3793 15.7429C19.0674 19.5643 14.0572 20.6683 11.4246 18.3754C10.7453 17.781 9.64133 17.8659 9.04686 18.5452C8.4524 19.2246 8.53734 20.3286 9.21667 20.923C10.7452 22.1968 12.6984 22.8762 14.8214 22.8762C18.2182 22.8762 22.0396 21.0928 24.8419 17.9508C25.0967 17.6111 25.3515 17.3563 25.6062 17.0167L36.1363 21.1778L30.1918 36.1236Z" fill="#E0E0E0"/>
</svg>
