<svg width="38" height="32" viewBox="0 0 38 32" fill="none" xmlns="http://www.w3.org/2000/svg">
<path d="M37.3184 2.58338C37.3184 2.28921 37.2404 2.00029 37.0926 1.74597C36.9447 1.49166 36.7322 1.28101 36.4766 1.13542C36.221 0.989833 35.9314 0.914498 35.6372 0.917067C35.343 0.919636 35.0548 1.00002 34.8017 1.15005C33.8258 1.7314 32.775 2.17663 31.6784 2.47338C30.1134 1.1305 28.1173 0.39573 26.0551 0.403379C23.793 0.40609 21.6204 1.28777 19.9962 2.86225C18.372 4.43673 17.4231 6.58078 17.3501 8.84171C12.8897 8.13059 8.8472 5.80259 5.99341 2.30171C5.82146 2.09333 5.60196 1.92931 5.3534 1.82344C5.10483 1.71758 4.83448 1.67297 4.56508 1.69338C4.29574 1.71567 4.03588 1.80319 3.80794 1.94838C3.58 2.09357 3.39082 2.29206 3.25675 2.52671C2.56928 3.72654 2.17448 5.07159 2.1044 6.45264C2.03432 7.83368 2.29094 9.21179 2.85341 10.475L2.85008 10.4767C2.59672 10.6324 2.38763 10.8506 2.24287 11.1103C2.09811 11.3701 2.02254 11.6627 2.02341 11.96C2.02074 12.2047 2.03578 12.4492 2.06841 12.6917C2.23862 14.7885 3.1678 16.7511 4.68175 18.2117C4.57901 18.4076 4.51637 18.6219 4.49748 18.8423C4.4786 19.0627 4.50384 19.2846 4.57175 19.495C5.23171 21.552 6.63551 23.2886 8.50841 24.365C6.60536 25.1008 4.55058 25.3572 2.52508 25.1117C2.15037 25.0651 1.77093 25.1471 1.44893 25.3443C1.12692 25.5416 0.881423 25.8423 0.752646 26.1972C0.623868 26.5522 0.619442 26.9404 0.740093 27.2982C0.860744 27.656 1.09932 27.9622 1.41675 28.1667C4.90043 30.4101 8.95654 31.6026 13.1001 31.6017C17.7988 31.6546 22.3833 30.1532 26.1405 27.331C29.8977 24.5089 32.6168 20.5242 33.8751 15.9967C34.4633 14.0247 34.7637 11.978 34.7667 9.92005L34.7651 9.58671C35.6353 8.64805 36.3095 7.54509 36.7479 6.34251C37.1864 5.13992 37.3803 3.8619 37.3184 2.58338ZM31.8084 7.93671C31.5328 8.26207 31.3932 8.68108 31.4184 9.10671C31.4351 9.38171 31.4334 9.65838 31.4334 9.92005C31.4299 11.6587 31.175 13.3877 30.6767 15.0534C29.6495 18.9061 27.3591 22.3026 24.1722 24.6989C20.9854 27.0953 17.0865 28.3528 13.1001 28.27C11.6686 28.2703 10.2421 28.1019 8.85008 27.7684C10.6256 27.1958 12.2857 26.3133 13.7534 25.1617C14.0241 24.9489 14.2222 24.6575 14.3205 24.3276C14.4189 23.9977 14.4126 23.6454 14.3027 23.3191C14.1927 22.9929 13.9844 22.7087 13.7064 22.5056C13.4284 22.3026 13.0943 22.1906 12.7501 22.185C11.3646 22.1634 10.0417 21.6047 9.06008 20.6267C9.30897 20.58 9.55619 20.5217 9.80175 20.4517C10.1618 20.3494 10.4769 20.1288 10.6963 19.8255C10.9157 19.5223 11.0267 19.154 11.0113 18.78C10.9959 18.406 10.855 18.0481 10.6114 17.7639C10.3678 17.4797 10.0357 17.2858 9.66841 17.2134C8.86423 17.0545 8.10752 16.7123 7.45713 16.2134C6.80674 15.7145 6.28018 15.0723 5.91841 14.3367C6.21967 14.3779 6.52285 14.4035 6.82675 14.4134C7.18788 14.4193 7.54153 14.3101 7.8364 14.1015C8.13128 13.8929 8.35207 13.5959 8.46675 13.2534C8.57683 12.908 8.5713 12.5361 8.451 12.1942C8.33069 11.8522 8.10217 11.5588 7.80008 11.3584C7.06664 10.8702 6.46576 10.2076 6.05127 9.43012C5.63678 8.65262 5.42162 7.78445 5.42508 6.90338C5.42508 6.79338 5.42841 6.68171 5.43508 6.57338C9.17085 10.0578 14.0166 12.1117 19.1184 12.3734C19.376 12.3832 19.6325 12.3342 19.8684 12.2303C20.1043 12.1263 20.3135 11.9701 20.4801 11.7734C20.6451 11.5755 20.762 11.342 20.8216 11.0912C20.8812 10.8405 20.8818 10.5794 20.8234 10.3284C20.728 9.9304 20.6793 9.52264 20.6784 9.11338C20.6802 7.68794 21.2472 6.32139 22.2551 5.31345C23.2631 4.30551 24.6296 3.73848 26.0551 3.73671C26.7887 3.73455 27.5147 3.8845 28.1874 4.1771C28.8601 4.4697 29.4648 4.8986 29.9634 5.43671C30.1556 5.64358 30.3976 5.79782 30.6663 5.88476C30.935 5.97169 31.2214 5.98843 31.4984 5.93338C32.1831 5.80029 32.858 5.62099 33.5184 5.39671C33.0681 6.31808 32.4927 7.17283 31.8084 7.93671Z" fill="white"/>
</svg>
